<svg width="36" height="36" viewBox="0 0 36 36" fill="none" xmlns="http://www.w3.org/2000/svg">
<path d="M0 18C0 8.05887 8.05887 0 18 0C27.9411 0 36 8.05887 36 18C36 27.9411 27.9411 36 18 36C8.05887 36 0 27.9411 0 18Z" fill="white"/>
<path fill-rule="evenodd" clip-rule="evenodd" d="M21.9502 7.2C22.1386 8.47997 21.6176 9.73391 20.9304 10.6211C20.1951 11.5727 18.9277 12.3087 17.6997 12.2703C17.4756 11.0449 18.0495 9.78224 18.7479 8.93347C19.514 7.99672 20.8269 7.27806 21.9502 7.2ZM25.639 25.2162C26.2721 24.246 26.5086 23.7566 27 22.6612C23.4257 21.302 22.853 16.2205 26.3903 14.2702C25.3114 12.9171 23.7952 12.1328 22.364 12.1328C21.3328 12.1328 20.6262 12.4019 19.9839 12.6465C19.4486 12.8504 18.9579 13.0373 18.3611 13.0373C17.7162 13.0373 17.1451 12.8325 16.5471 12.6181C15.89 12.3825 15.2004 12.1352 14.3447 12.1352C12.7386 12.1352 11.029 13.1166 9.94518 14.7943C8.42162 17.1572 8.6815 21.5993 11.1522 25.3835C12.0353 26.7378 13.2152 28.2594 14.7585 28.273C15.3989 28.2794 15.825 28.0882 16.2861 27.8814C16.8139 27.6447 17.3876 27.3874 18.3808 27.3821C19.3799 27.3761 19.9446 27.6366 20.4653 27.8768C20.9146 28.084 21.3313 28.2762 21.9662 28.2693C23.5107 28.2569 24.7559 26.5705 25.639 25.2162Z" fill="#0B0B0A"/>
</svg>
